# xmcd
#
# Track frame offsets:
#	150
#	15697
#	29949
#	45392
#	64949
#	80716
#	96688
#	114828
#	131783
#	149037
#
# Disc length: 2220 seconds
#
# Revision: 1
# Processed by: cddbd v1.4PL0 Copyright (c) Steve Scherf et al.
# Submitted via: EasyCDDAExtractor 5.0.7
#
DISCID=9908aa0a
DTITLE=Cactus Choir
DYEAR=2001
DGENRE=Country
TTITLE0=LIttle Candles
TTITLE1=New Frontier
TTITLE2=It's Your Move
TTITLE3=A Crazy Life
TTITLE4=Hold On
TTITLE5=I Can't Find A Reason
TTITLE6=Apatzingan
TTITLE7=Some Day Darlin'
TTITLE8=Cattle Call Blues
TTITLE9=Cheyenne
EXTD=
EXTT0=
EXTT1=
EXTT2=
EXTT3=
EXTT4=
EXTT5=
EXTT6=
EXTT7=
EXTT8=
EXTT9=
PLAYORDER=
